<svg xmlns="http://www.w3.org/2000/svg" viewBox="0 0 1336.19 1336.2"><defs><style>.cls-1{fill:#ebe5f4;}.cls-2{fill:#fefefe;}.cls-3{fill:#673ab6;}.cls-4{fill:#fdca7f;}.cls-5{fill:#fe5722;}.cls-6{fill:#fda940;}.cls-7{fill:#311b91;}.cls-8{fill:#fdaa42;}.cls-9{fill:#fdaa41;}.cls-10{fill:#79481a;}</style></defs><title>Grisha_svg</title><g id="Слой_2" data-name="Слой 2"><g id="Grisha"><path class="cls-1" d="M.09,682.09v-28c2.72-.55,2-2.75,2-4.42-.13-12.8,1-25.52,1.9-38.27a585,585,0,0,1,7.45-59.1,642.42,642.42,0,0,1,16.5-70.6A663.62,663.62,0,0,1,80.26,353.59a696.51,696.51,0,0,1,50.45-80,625.29,625.29,0,0,1,49.46-59.76c15.15-16.09,31-31.55,47.66-46.18a663.28,663.28,0,0,1,63.09-49.32,675.14,675.14,0,0,1,107.42-60A689.84,689.84,0,0,1,513.86,19.24c17.19-4.23,34.62-7.52,52.16-10,13.1-1.89,26.22-3.87,39.4-4.93C620,3.08,634.53,1.6,649.17,2c1.76.05,4.21,1,4.92-1.94h28c.71,3,3.16,2,4.93,1.94,14.81-.44,29.56.87,44.24,2.31C747.54,5.93,763.77,8.2,780,10.88a650.34,650.34,0,0,1,70.77,15.76c18.53,5.24,36.77,11.53,54.81,18.35a651.69,651.69,0,0,1,94.15,44.57,671.38,671.38,0,0,1,123.08,91c12.85,12.05,25.28,24.59,37.15,37.68q24.45,27,46.1,56.12a674.71,674.71,0,0,1,54.9,88.42c7.89,15,14.87,30.51,21.56,46.1a662.74,662.74,0,0,1,27.37,77.52,628.93,628.93,0,0,1,15,66.42c3.09,17.61,5.5,35.34,7.12,53.13,1.32,14.53,2.66,29.11,2.19,43.75-.05,1.67-.76,3.87,1.95,4.42v28c-2.71.56-1.88,2.75-2,4.43-.37,7.79-.33,15.58-.81,23.38-1.3,21.52-3.83,42.85-7.11,64.14a629.29,629.29,0,0,1-22.07,94.29A660.8,660.8,0,0,1,1255.72,983a682.05,682.05,0,0,1-47.8,76.39,654.17,654.17,0,0,1-55.29,66.56,672.3,672.3,0,0,1-67,61.88c-6.28,5.05-12.15,10.77-19.61,14.24l-1.92-16.34a311.85,311.85,0,0,0-26.56-95.64c-35.65-76.86-95.4-128.57-171.19-163.44-1.76-.89-3.5-1.85-5.3-2.65a430.37,430.37,0,0,0-59.3-20.86c-.17-2.64-.47-5.28-.48-7.92q-.11-34.08-.1-68.15c14.83-11.29,29.26-23,41.66-37.08,25.43-28.9,43.06-61.82,52.07-99.26,2-8.35,3.47-16.84,5.18-25.26,35.4-11.23,46.4-56.36,20.09-82.44,4-4.18,8-8.45,12.14-12.5a7.71,7.71,0,0,0,2.53-6.15c-.12-8.66.05-17.33-.06-26-.48-38.57-3.73-76.79-14.78-114-9-30.35-22.62-58.25-44.13-81.86-26-28.59-58.75-45.23-96.13-53.38-3.52-.77-5.75-2.12-7.4-5.54-7.24-15-14.92-29.73-22.17-44.7-1.56-3.23-3.44-4.17-6.87-4.16q-37.49.21-75,.07c-44.53-.12-86.4,10.27-125.2,32.16-53.45,30.15-91.67,74.26-117.06,129.75A264.52,264.52,0,0,0,402,493c-1.31,24-.32,48-.68,71.94a7.23,7.23,0,0,0,2.54,5.63c4.11,4.1,8.09,8.34,12.13,12.53-26.39,25.87-15.35,71.16,20.08,82.43,1.09,5.85,2,11.72,3.27,17.54,9.25,43.36,29.25,81.08,59.68,113.27,10.89,11.52,23.34,21.28,36,30.79,0,17.9,0,35.79-.11,53.69-.05,7.44.54,14.91-.47,22.33-1.11.34-2.2.72-3.32,1-20.93,5.68-41.37,12.7-61,22.08-2.26,1-4.55,2-6.8,3.08-44.52,21.23-84.19,49.12-116.83,86.36C299.7,1069,275.94,1131.94,270,1202.11a6.67,6.67,0,0,1-1.86-.62,581.22,581.22,0,0,1-55.26-46.32c-12.68-12-25-24.4-36.79-37.32-14.9-16.31-29.13-33.17-42.34-50.84a672.41,672.41,0,0,1-58.36-93.25c-8-15.36-15.19-31.08-22-47a656.74,656.74,0,0,1-27.12-77,633.37,633.37,0,0,1-15.74-71.27q-4-24-6.33-48.2C2.87,715.73,1.58,701.15,2,686.52,2.1,684.85,2.81,682.65.09,682.09Z"/><path class="cls-2" d="M.09,682.09c2.72.56,2,2.76,2,4.43-.46,14.63.83,29.21,2.22,43.73q2.31,24.18,6.33,48.2a633.37,633.37,0,0,0,15.74,71.27,656.74,656.74,0,0,0,27.12,77c6.78,15.91,14,31.63,22,47A672.41,672.41,0,0,0,133.78,1067c13.21,17.67,27.44,34.53,42.34,50.84,11.8,12.92,24.11,25.33,36.79,37.32a581.22,581.22,0,0,0,55.26,46.32,6.67,6.67,0,0,0,1.86.62l5.65,4.11Q446,1329.61,656.32,1334.67A644.85,644.85,0,0,0,827,1315.48c87.35-21.68,167-59.68,239.11-113.39,7.46-3.47,13.33-9.19,19.61-14.24a672.3,672.3,0,0,0,67-61.88,654.17,654.17,0,0,0,55.29-66.56,682.05,682.05,0,0,0,47.8-76.39,660.8,660.8,0,0,0,48.42-114.69A629.29,629.29,0,0,0,1326.21,774c3.28-21.29,5.81-42.62,7.11-64.14.48-7.8.44-15.59.81-23.38.08-1.68-.75-3.87,2-4.43q0,324.69.08,649.38c0,3.52-.43,4.73-4.45,4.73q-663.63-.17-1327.25,0c-4,0-4.46-1.21-4.46-4.73Q.15,1006.78.09,682.09Z"/><path class="cls-2" d="M1336.09,654.09c-2.71-.55-2-2.75-1.95-4.42.47-14.64-.87-29.22-2.19-43.75-1.62-17.79-4-35.52-7.12-53.13a628.93,628.93,0,0,0-15-66.42,662.74,662.74,0,0,0-27.37-77.52c-6.69-15.59-13.67-31.06-21.56-46.1a674.71,674.71,0,0,0-54.9-88.42q-21.66-29.23-46.1-56.12c-11.87-13.09-24.3-25.63-37.15-37.68a671.38,671.38,0,0,0-123.08-91A651.69,651.69,0,0,0,905.53,45c-18-6.82-36.28-13.11-54.81-18.35A650.34,650.34,0,0,0,780,10.88c-16.18-2.68-32.41-5-48.69-6.54C716.58,2.9,701.83,1.59,687,2c-1.77.05-4.22,1-4.93-1.94q324.75,0,649.5-.09c3.75,0,4.6.84,4.6,4.59Q1336,329.34,1336.09,654.09Z"/><path class="cls-2" d="M654.09.09c-.71,3-3.16,2-4.92,1.94C634.53,1.6,620,3.08,605.42,4.26c-13.18,1.06-26.3,3-39.4,4.93-17.54,2.53-35,5.82-52.16,10A689.84,689.84,0,0,0,398.34,58.32a675.14,675.14,0,0,0-107.42,60,663.28,663.28,0,0,0-63.09,49.32c-16.67,14.63-32.51,30.09-47.66,46.18a625.29,625.29,0,0,0-49.46,59.76,696.51,696.51,0,0,0-50.45,80A663.62,663.62,0,0,0,27.9,481.7a642.42,642.42,0,0,0-16.5,70.6A585,585,0,0,0,4,611.4c-.91,12.75-2,25.47-1.9,38.27,0,1.67.76,3.87-2,4.42Q.09,329.34,0,4.59C0,.84.84,0,4.59,0Q329.34.15,654.09.09Z"/><path class="cls-3" d="M1066.07,1202.09C993.92,1255.8,914.31,1293.8,827,1315.48a644.85,644.85,0,0,1-170.64,19.19q-210.3-4.76-380.64-128.45l-5.65-4.11c5.91-70.17,29.67-133.07,76.45-186.45,32.64-37.24,72.31-65.13,116.83-86.36,2.25-1.07,4.54-2.06,6.8-3.08,1.45,19.27,7,37.53,14.73,55,11.61,26.31,27.82,49.36,49.41,68.65a200.75,200.75,0,0,0,53.72,34.9c32.5,14.14,66.48,19,101.79,15.37a193.58,193.58,0,0,0,63-17.55,196.57,196.57,0,0,0,69.76-54.39c24.18-29.78,38.92-63.55,43.87-101.58,75.78,34.87,135.53,86.58,171.18,163.44a311.85,311.85,0,0,1,26.56,95.64Z"/><path class="cls-4" d="M900.13,665.49c-1.71,8.42-3.17,16.91-5.18,25.26-9,37.44-26.64,70.36-52.07,99.26-12.4,14.1-26.83,25.79-41.66,37.08-13.48,8.55-27.19,16.72-42,22.78a246.68,246.68,0,0,1-73.74,17.47,235.57,235.57,0,0,1-65.27-4.16c-30.87-6.08-59.08-18.74-85.24-36.09-12.63-9.51-25.08-19.27-36-30.79-30.43-32.19-50.43-69.91-59.68-113.27-1.24-5.82-2.18-11.69-3.27-17.54.63-5.36-.92-10.59-.94-15.9q-.08-20.73,0-41.48c0-1.77-.56-3.71,1-5.19,10.36,10.26,20.73,20.51,32,31.63V628c0-40.5.06-81-.08-121.49,0-3.76,1-5.44,4.7-6.65Q563.19,470.61,653.57,441q58.14-19,116.26-38c2.8-.92,5.1-1.59,7.62,1.12q43.62,47.12,87.51,94a11.18,11.18,0,0,1,3.2,8.41Q868,567.28,868.09,628v6.53l32-31.62c1.71,1.64,1,3.76,1,5.68C901.1,627.57,901.51,646.55,900.13,665.49ZM534.91,601.43A33.18,33.18,0,1,0,568.2,568.1,33.35,33.35,0,0,0,534.91,601.43Zm266.35,0A33.18,33.18,0,1,0,768,634.85,33.17,33.17,0,0,0,801.26,601.42Z"/><path class="cls-5" d="M900.06,602.93l-32,31.62V628q0-60.74.07-121.49a11.18,11.18,0,0,0-3.2-8.41q-43.89-46.87-87.51-94c-2.52-2.71-4.82-2-7.62-1.12q-58.11,19-116.26,38-90.42,29.5-180.86,58.88c-3.74,1.21-4.72,2.89-4.7,6.65.14,40.49.08,81,.08,121.49v6.52l-32-31.62c-6.54-6.8-13-13.72-20.15-19.87-4-4.19-8-8.43-12.13-12.53a7.23,7.23,0,0,1-2.54-5.63c.36-24-.63-48,.68-71.94a264.52,264.52,0,0,1,24.15-96.2c25.39-55.49,63.61-99.6,117.06-129.75,38.8-21.89,80.67-32.28,125.2-32.16q37.47.09,75-.07c3.43,0,5.31.93,6.87,4.16,7.25,15,14.93,29.72,22.17,44.7,1.65,3.42,3.88,4.77,7.4,5.54,37.38,8.15,70.09,24.79,96.13,53.38,21.51,23.61,35.11,51.51,44.13,81.86,11.05,37.2,14.3,75.42,14.78,114,.11,8.66-.06,17.33.06,26a7.71,7.71,0,0,1-2.53,6.15c-4.16,4.05-8.11,8.32-12.14,12.5C913,589.21,906.61,596.13,900.06,602.93Z"/><path class="cls-6" d="M535,827.09c26.16,17.35,54.37,30,85.24,36.09a235.57,235.57,0,0,0,65.27,4.16,246.68,246.68,0,0,0,73.74-17.47c14.81-6.06,28.52-14.23,42-22.78q0,34.08.1,68.15c0,2.64.31,5.28.48,7.92-1.54,12.86-3,25.72-6.72,38.22-10,33.69-28,61.34-59.74,78.36-18.55,9.93-38.69,14-59.54,14.88-26.16,1-51.56-2.48-75-14.93-31.68-16.82-49.53-44.41-59.6-77.88-3.8-12.64-5.32-25.66-6.82-38.7,1-7.42.42-14.89.47-22.33C535,862.88,534.94,845,535,827.09Z"/><path class="cls-7" d="M534.39,903.11c1.5,13,3,26.06,6.82,38.7,10.07,33.47,27.92,61.06,59.6,77.88,23.43,12.45,48.83,16,75,14.93,20.85-.83,41-4.95,59.54-14.88,31.77-17,49.73-44.67,59.74-78.36,3.72-12.5,5.18-25.36,6.72-38.22A430.37,430.37,0,0,1,861.1,924c1.8.8,3.54,1.76,5.3,2.65-4.94,38-19.68,71.8-43.86,101.58a196.57,196.57,0,0,1-69.76,54.39,193.58,193.58,0,0,1-63,17.55c-35.31,3.67-69.29-1.23-101.79-15.37a200.75,200.75,0,0,1-53.72-34.9c-21.59-19.29-37.8-42.34-49.41-68.65-7.74-17.52-13.28-35.78-14.73-55,19.59-9.38,40-16.4,61-22.08C532.19,903.83,533.28,903.45,534.39,903.11Z"/><path class="cls-8" d="M416,583.06c7.18,6.15,13.61,13.07,20.15,19.87-1.6,1.47-1,3.41-1,5.18q0,20.75,0,41.48c0,5.31,1.57,10.54.94,15.9C400.62,654.22,389.58,608.93,416,583.06Z"/><path class="cls-9" d="M900.06,602.93c6.55-6.8,13-13.72,20.16-19.88,26.31,26.08,15.31,71.21-20.09,82.44,1.38-18.94,1-37.92,1-56.88C901.1,606.69,901.77,604.57,900.06,602.93Z"/><path class="cls-10" d="M534.91,601.43a33.18,33.18,0,1,1,33.31,33.42A33.17,33.17,0,0,1,534.91,601.43Z"/><path class="cls-10" d="M801.26,601.42A33.18,33.18,0,1,1,768,568.1,33.32,33.32,0,0,1,801.26,601.42Z"/></g></g></svg>