<svg xmlns="http://www.w3.org/2000/svg" viewBox="0 0 237.34 177"><defs><style>.cls-1{fill:#a42dc6;}</style></defs><title>boxis_svg</title><g id="Слой_2" data-name="Слой 2"><g id="Gerasim"><g id="boxis"><path class="cls-1" d="M214.82,22.75,168.17,2,162.25,7,206.2,25,124.73,57.06V49.29l-6.42-1.19L81,0,25.18,21.9,0,59.26l25.52-2.2v84.17l94,35.77L215,140.38V83.43l22.36-10.65Zm-98.2,146.54-84-33.3V31.71l84,33.8Zm91.18-33.13-84.67,33.13V65.43l19,48.93L207.8,85.71Z"/><polygon class="cls-1" points="39.72 95.47 51.21 74.64 78.42 65.43 58.14 105.06 39.72 95.47"/><polygon class="cls-1" points="83.01 66.63 103.94 77.93 113.39 105.06 73.58 85.13 83.01 66.63"/><polygon class="cls-1" points="111.19 109.37 99.97 130.35 72.88 139.92 92.64 100.02 111.19 109.37"/><polygon class="cls-1" points="68.76 138.56 48.15 126.68 39.45 99.31 78.69 120.32 68.76 138.56"/></g></g></g></svg>