<svg xmlns="http://www.w3.org/2000/svg" viewBox="0 0 882 177"><defs><style>.cls-1{fill:#fffeff;}.cls-2{fill:#8d31c1;}</style></defs><title>chasesvg</title><g id="Слой_2" data-name="Слой 2"><g id="chase"><path class="cls-1" d="M87.08,128.21c-5.06,2.54-13,3.55-26,3.55C24.55,131.76,0,112.62,0,77.65,0,41,23.78,19.93,56.86,19.93c13.29,0,26.58,2.95,30.22,4.85L85.9,44.05c-5.22-2.54-17.67-5.92-26.53-5.92-20.45,0-34.65,12.17-34.65,39,0,15,11.4,35.83,37.35,35.83,8.39,0,19.48-2,25-4.73Z"/><path class="cls-1" d="M90,10h21.93V59h.32c2.21-4,9.52-8.67,13.79-11,4.12-2.37,12.61-1.26,17.83-1.26,14.71,0,23.16,11.4,23.16,39.68v45.58H144.89v-44c0-12.35-2.14-22.43-15.28-22.43-9,0-13.37,4.55-15.91,12.15A24.25,24.25,0,0,0,112,85.72v46.21l-22-.17Z"/><path class="cls-1" d="M225,132l0-12h-.48c-4.27,6-10.07,13-25.86,13-15.51,0-28.64-7.82-28.64-24.31,0-28,24.48-29,54.08-28.8V78.29c0-6.33-3.26-16.67-18.93-16.67-7.12,0-20.56,5.87-25.94,9.35l-.09-18.64c6.33-4.12,19.42-5.41,29.07-5.41C238.69,46.92,244,63,244,85v28.65c0,6.65.09,13.13,1,18.36Zm-1-38c-18.09,0-32,0-32,13.18,0,8.71,7.26,10.9,13,10.9a18.48,18.48,0,0,0,12-4.81c3.19-3.19,3.5-3.75,5.53-8.53S224,94,224,94Z"/><path class="cls-1" d="M250,111c4.11,2.69,14.48,6.14,21.44,6.14,10.13,0,14.45-5,14.45-8.3,0-6.27-2.11-6.53-16.82-12.57-13.52-5.55-20-10.73-20-23.2,0-20.45,18.88-26.15,33.88-26.15,7.76,0,16.94.68,21.21,3.21V66.06s-10.64-3-18.84-3-14.83,2.77-14.83,8.47c0,4.71,5.87,6.62,15.84,10.41C299.65,87,307.9,90.56,307.9,106c0,13.45-8.87,27-34.92,27-7,0-21.74-2.4-23-3Z"/><path class="cls-1" d="M329.58,96.86c0,10.53,8.31,21,24.55,21,11.62,0,20.44-6,26.53-8.49l-.12,18.51a67.16,67.16,0,0,1-28.78,6c-27.49,0-43.91-18.13-43.91-41.8,0-29.19,15.87-46.68,41.88-46.68C377.87,45.4,386,69.45,386,86.34c0,3.22.24,9,.06,10.59ZM365.11,82c0-6.31-2.53-21-16.9-21-13.27,0-18.29,11.68-19.27,21Z"/><path class="cls-1" d="M394,20h32.39c15.55,0,26.9,1.68,33.55,7.06,5.54,4.11,9,9.3,9,21,0,17.11-8.67,20.35-19.9,24.46,0,0,23.85,4.69,23.85,26,0,12.13-2.63,18.44-8,23.66-7.44,6.81-15,9.77-30.42,9.77H394Zm23,44.92,8,.21c14.56,0,21-4.29,21-14.58S438.64,37,424.71,37L417,37ZM417,115s4.31.06,9.21.06c18.68,0,23.75-7.94,23.75-17.66,0-13.14-10.65-16-23.07-16L417,81.34Z"/><path class="cls-1" d="M561.85,90c0,31.45-22.15,44.05-43.4,44.05-24.89,0-43.57-18.34-43.57-42.78,0-25.64,15-45.3,43.57-45.3C543.08,46,561.85,61.29,561.85,90Zm-64.06.8c0,15.27,7.38,27,21,27,13.3,0,20.33-12.08,20.33-27.18,0-13-6.08-28.76-20.33-28.76C504,61.88,497.79,76.23,497.79,90.8Z"/><path class="cls-1" d="M585.34,47.93l16.14,27c2.53-4.59,16.39-27,16.39-27h23.07l-25,40.33L644,131.93H618s-15.82-25.83-18.51-30.42l-18.84,30.42h-24l28.56-43.2-26.08-40.8Z"/><path class="cls-2" d="M859.48,22.75,812.83,2,806.91,7l44,17.92L769.39,57.06V49.29L763,48.1,725.62,0,669.84,21.9,644.66,59.26l25.52-2.2v84.17l94,35.77,95.49-36.62V83.43L882,72.78Zm-98.2,146.54-84-33.3V31.71l84,33.8Zm91.18-33.13-84.67,33.13V65.43l19,48.93,65.66-28.65Z"/><polygon class="cls-2" points="684.38 95.47 695.87 74.64 723.09 65.43 702.8 105.06 684.38 95.47"/><polygon class="cls-2" points="727.67 66.63 748.61 77.93 758.06 105.06 718.25 85.13 727.67 66.63"/><polygon class="cls-2" points="755.85 109.37 744.63 130.35 717.54 139.92 737.3 100.02 755.85 109.37"/><polygon class="cls-2" points="713.42 138.56 692.81 126.68 684.11 99.31 723.36 120.32 713.42 138.56"/></g></g></svg>