<svg xmlns="http://www.w3.org/2000/svg" viewBox="0 0 643.99 358.59"><defs><style>.cls-1{fill:#a42dc6;}.cls-2{fill:#fffeff;}</style></defs><title>boxsvg</title><g id="Слой_2" data-name="Слой 2"><g id="box"><path class="cls-1" d="M497.12,204.34l-46.65-20.79-5.92,5.07,43.95,17.92L407,238.65v-7.77l-6.42-1.19-37.35-48.1-55.78,21.9L282.3,240.85l25.52-2.2v84.17l94,35.77L497.28,322V265l22.36-10.65Zm-98.2,146.54-84-33.3V213.3l84,33.8Zm91.18-33.13-84.67,33.13V247l19,48.93L490.1,267.3Z"/><polygon class="cls-1" points="322.02 277.06 333.51 256.23 360.72 247.02 340.44 286.65 322.02 277.06"/><polygon class="cls-1" points="365.31 248.22 386.24 259.52 395.69 286.65 355.88 266.73 365.31 248.22"/><polygon class="cls-1" points="393.48 290.97 382.27 311.95 355.18 321.51 374.94 281.62 393.48 290.97"/><polygon class="cls-1" points="351.06 320.15 330.44 308.27 321.75 280.9 360.99 301.91 351.06 320.15"/><path class="cls-2" d="M87.08,118.2c-5.06,2.53-13,3.55-26,3.55C24.55,121.75,0,102.61,0,67.63,0,31,23.78,9.92,56.86,9.92c13.29,0,26.58,2.94,30.22,4.84L85.9,34c-5.22-2.53-17.67-5.92-26.53-5.92-20.45,0-34.65,12.17-34.65,39.05,0,15,11.4,35.83,37.35,35.83,8.39,0,19.48-2,25-4.73Z"/><path class="cls-2" d="M90,0h21.93V49h.32c2.21-4,9.52-8.67,13.79-11,4.12-2.38,12.61-1.27,17.83-1.27,14.71,0,23.16,11.41,23.16,39.69v45.58H144.89v-44c0-12.34-2.14-22.43-15.28-22.43-9,0-13.37,4.56-15.91,12.15A24.25,24.25,0,0,0,112,75.7v46.22l-22-.17Z"/><path class="cls-2" d="M225,122l0-12h-.48c-4.27,6-10.07,13-25.86,13C183.12,123,170,115.16,170,98.66c0-27.95,24.48-29,54.08-28.8V68.28c0-6.33-3.26-16.67-18.93-16.67-7.12,0-20.56,5.87-25.94,9.35l-.09-18.65c6.33-4.11,19.42-5.41,29.07-5.41C238.69,36.9,244,53,244,75v28.64c0,6.65.09,13.14,1,18.36Zm-1-38c-18.09,0-32,0-32,13.19,0,8.7,7.26,10.9,13,10.9a18.49,18.49,0,0,0,12-4.82c3.19-3.19,3.5-3.74,5.53-8.52S224,84,224,84Z"/><path class="cls-2" d="M250,101c4.11,2.69,14.48,6.15,21.44,6.15,10.13,0,14.45-5,14.45-8.31,0-6.27-2.11-6.52-16.82-12.56-13.52-5.56-20-10.74-20-23.21C249.09,42.61,268,36.9,283,36.9c7.76,0,16.94.68,21.21,3.21V56s-10.64-3-18.84-3-14.83,2.77-14.83,8.47c0,4.71,5.87,6.62,15.84,10.42C299.65,77,307.9,80.54,307.9,96c0,13.45-8.87,27-34.92,27-7,0-21.74-2.39-23-3Z"/><path class="cls-2" d="M329.58,86.85c0,10.53,8.31,21,24.55,21,11.62,0,20.44-6,26.53-8.49l-.12,18.5a67,67,0,0,1-28.78,6c-27.49,0-43.91-18.13-43.91-41.8,0-29.19,15.87-46.68,41.88-46.68,28.14,0,36.26,24.06,36.26,40.95,0,3.21.24,9,.06,10.58ZM365.11,72c0-6.3-2.53-20.95-16.9-20.95C334.94,51,329.92,62.7,328.94,72Z"/><path class="cls-2" d="M434.41,122c15.42,0,23-3,30.42-9.76,5.38-5.22,8-11.54,8-23.67,0-21.33-23.85-26-23.85-26,11.23-4.12,19.9-7.35,19.9-24.46,0-11.71-3.42-16.89-9-21-6.65-5.38-18-7-33.55-7H394V175l-28.55-8.58v4.69L403,223.19h4l36.89-51.32v-5.64l-25.52,9.47V122ZM417,27l7.71-.05c13.93,0,21.36,3.3,21.36,13.61s-6.48,14.57-21,14.57l-8-.21Zm0,44.34,9.89.06c12.42,0,23.07,2.83,23.07,16,0,9.72-5.07,17.67-23.75,17.67C421.3,105,417,105,417,105Z"/><path class="cls-2" d="M561.85,80c0,31.45-22.15,44-43.4,44-24.89,0-43.57-18.34-43.57-42.78,0-25.63,15-45.3,43.57-45.3C543.08,36,561.85,51.27,561.85,80Zm-64.06.79c0,15.28,7.38,27,21,27,13.3,0,20.33-12.08,20.33-27.18,0-13-6.08-28.76-20.33-28.76C504,51.86,497.79,66.22,497.79,80.78Z"/><path class="cls-2" d="M585.34,37.92l16.14,27c2.53-4.59,16.39-27,16.39-27h23.07l-25,40.32L644,121.92H618s-15.82-25.84-18.51-30.43l-18.84,30.43h-24l28.56-43.2-26.08-40.8Z"/></g></g></svg>